<svg xmlns="http://www.w3.org/2000/svg" xmlns:xlink="http://www.w3.org/1999/xlink" width="10.426" height="10.426" viewBox="0 0 10.426 10.426"><defs><linearGradient id="a" x1="0.5" x2="0.5" y2="1" gradientUnits="objectBoundingBox"><stop offset="0" stop-color="#11adba"/><stop offset="1" stop-color="#269a65"/></linearGradient></defs><path d="M8.743,6.36,6.775,5.516a.422.422,0,0,0-.492.121L5.41,6.7A6.516,6.516,0,0,1,2.3,3.588l1.065-.872a.421.421,0,0,0,.121-.492L2.639.255A.425.425,0,0,0,2.155.011L.327.433A.422.422,0,0,0,0,.844,8.155,8.155,0,0,0,8.156,9a.422.422,0,0,0,.411-.327L8.99,6.845A.427.427,0,0,0,8.743,6.36Z" transform="matrix(0.985, 0.174, -0.174, 0.985, 1.563, 0)" fill="url(#a)"/></svg>