<?xml version="1.0" encoding="UTF-8"?>
<!-- Generated by Pixelmator Pro 3.6.3 -->
<svg width="129" height="19" viewBox="0 0 129 19" xmlns="http://www.w3.org/2000/svg">
    <path id="path1" fill="#1c9765" stroke="none" d="M 4.853 -19 C 3.90515 -18.963482 2.967114 -19.203205 2.153 -19.689999 C 1.438333 -20.151955 0.877755 -20.816639 0.543 -21.598999 C 0.16809 -22.486076 -0.015899 -23.442135 0.003 -24.404999 L 0.003 -32.661999 C -0.017047 -33.641335 0.159078 -34.614777 0.521 -35.525002 C 0.839617 -36.313183 1.393871 -36.983734 2.108 -37.445 C 2.938025 -37.935841 3.892555 -38.175518 4.856 -38.134998 C 5.819445 -38.175518 6.773974 -37.935841 7.604 -37.445 C 8.31813 -36.983734 8.872383 -36.313183 9.191 -35.525002 C 9.552581 -34.614708 9.728364 -33.641266 9.708 -32.661999 L 9.708 -24.404999 C 9.726898 -23.442135 9.54291 -22.486076 9.168 -21.598999 C 8.832708 -20.816368 8.271408 -20.151653 7.556 -19.689999 C 6.741021 -19.202637 5.80186 -18.962898 4.853 -19 Z M 4.853 -21.737 C 5.255853 -21.705807 5.64937 -21.868935 5.912 -22.175999 C 6.149995 -22.485477 6.307994 -22.848873 6.372 -23.234001 C 6.447537 -23.63596 6.486032 -24.044006 6.487 -24.452999 L 6.487 -32.616001 C 6.488323 -33.043674 6.454879 -33.470745 6.387 -33.893002 C 6.331852 -34.281868 6.177572 -34.650002 5.939 -34.962002 C 5.668525 -35.271091 5.267288 -35.433292 4.858 -35.398998 C 4.448711 -35.433292 4.047475 -35.271091 3.777 -34.962002 C 3.53807 -34.650108 3.383442 -34.281963 3.328 -33.893002 C 3.260121 -33.470745 3.226677 -33.043674 3.228 -32.616001 L 3.228 -24.451 C 3.229302 -24.041435 3.271851 -23.633041 3.355 -23.231998 C 3.424079 -22.848469 3.582714 -22.48666 3.818 -22.175999 C 4.072833 -21.872421 4.457617 -21.709213 4.853 -21.737 Z M 16.721001 -19 C 15.712049 -18.940861 14.708091 -19.180889 13.835 -19.689999 C 13.148422 -20.155315 12.647495 -20.847408 12.42 -21.645 C 12.142821 -22.609047 12.011037 -23.609058 12.029 -24.612 L 15.134001 -24.612 C 15.128292 -24.053421 15.170446 -23.49538 15.26 -22.944 C 15.314035 -22.526711 15.490059 -22.134659 15.766001 -21.817001 C 16.0637 -21.532528 16.471537 -21.393532 16.881001 -21.437 C 17.32579 -21.393318 17.760059 -21.590439 18.02 -21.953999 C 18.272467 -22.397358 18.417992 -22.893513 18.445 -23.403 C 18.506334 -24.023666 18.537001 -24.748 18.537001 -25.576 C 18.543873 -26.207611 18.502083 -26.83881 18.412001 -27.464001 C 18.359509 -27.918644 18.186932 -28.35112 17.912001 -28.716999 C 17.618916 -29.036728 17.194189 -29.202553 16.761999 -29.166 C 16.348625 -29.177032 15.949581 -29.014149 15.662001 -28.716999 C 15.351156 -28.38279 15.129654 -27.975555 15.018 -27.533001 L 12.282 -27.533001 L 12.466 -37.905998 L 20.837999 -37.905998 L 20.837999 -35.054001 L 15.138 -35.054001 L 14.954 -30.569 C 15.225008 -30.872963 15.569246 -31.10257 15.954 -31.236 C 16.422394 -31.411514 16.915344 -31.512733 17.414999 -31.535999 C 18.2607 -31.618607 19.108286 -31.39856 19.806999 -30.915001 C 20.455225 -30.404659 20.929314 -29.705929 21.164 -28.915001 C 21.475529 -27.902306 21.62306 -26.846298 21.601 -25.786999 C 21.604881 -24.878513 21.538013 -23.971104 21.400999 -23.073002 C 21.295567 -22.317207 21.050032 -21.587723 20.677 -20.922001 C 20.327232 -20.31834 19.812389 -19.827087 19.193001 -19.506001 C 18.422169 -19.139534 17.573826 -18.965885 16.721001 -19 Z M 28.152 -19.022999 C 27.240067 -18.989239 26.333721 -19.179092 25.511999 -19.576 C 24.838875 -19.926067 24.3039 -20.493462 23.993999 -21.186001 C 23.650681 -22.000259 23.485977 -22.878677 23.511 -23.762001 L 23.511 -24.014999 L 26.542 -24.014999 C 26.507113 -23.37867 26.613312 -22.742493 26.853001 -22.152 C 27.130745 -21.699741 27.650631 -21.455711 28.176001 -21.531002 C 28.535812 -21.509853 28.887457 -21.643814 29.142 -21.898998 C 29.419044 -22.251369 29.594069 -22.673016 29.648001 -23.118 C 29.769438 -23.854912 29.824326 -24.601254 29.812 -25.348 L 29.812 -27.576 C 29.580812 -27.208946 29.244093 -26.92033 28.846001 -26.748001 C 28.359768 -26.536385 27.835285 -26.426788 27.305 -26.425999 C 26.453022 -26.365822 25.607847 -26.614296 24.924 -27.125999 C 24.313999 -27.639015 23.873095 -28.324245 23.659 -29.091999 C 23.394566 -30.003437 23.26684 -30.94907 23.280001 -31.897999 C 23.260012 -32.994377 23.423258 -34.086399 23.763 -35.129002 C 24.045485 -36.00172 24.591976 -36.765202 25.327 -37.313999 C 26.160034 -37.876007 27.152218 -38.154125 28.156 -38.106998 C 29.149145 -38.151527 30.131041 -37.881733 30.962 -37.335999 C 31.694517 -36.806904 32.245098 -36.063831 32.538002 -35.209 C 32.882252 -34.212399 33.049442 -33.163239 33.032001 -32.109001 L 33.032001 -25.508999 C 33.045132 -24.398102 32.901722 -23.290894 32.606003 -22.220001 C 32.366043 -21.308308 31.850592 -20.492874 31.129999 -19.884998 C 30.268209 -19.25922 29.214809 -18.954308 28.152 -19.022999 Z M 28.174999 -28.844002 C 28.543682 -28.82439 28.907021 -28.938755 29.198 -29.166 C 29.43577 -29.363094 29.641548 -29.59586 29.808001 -29.855999 L 29.808001 -32.756001 C 29.812454 -33.246124 29.766209 -33.735394 29.67 -34.216 C 29.600916 -34.606472 29.430576 -34.971977 29.176001 -35.276001 C 28.910612 -35.554199 28.53569 -35.700653 28.152 -35.675999 C 27.773081 -35.69709 27.405127 -35.544758 27.152 -35.262001 C 26.888735 -34.928871 26.717991 -34.532196 26.657 -34.112 C 26.558428 -33.542419 26.512234 -32.965008 26.518999 -32.387001 C 26.518999 -31.727666 26.546 -31.129667 26.6 -30.593002 C 26.6257 -30.137447 26.772406 -29.696983 27.025 -29.317001 C 27.30649 -28.978809 27.737024 -28.801731 28.174999 -28.844002 Z M 35.627003 -25.738998 L 35.627003 -27.855 L 41.170002 -27.855 L 41.170002 -25.738998 Z M 48.231003 -19 C 47.248867 -18.95504 46.27338 -19.182041 45.412003 -19.655998 C 44.703033 -20.088459 44.15728 -20.743576 43.860001 -21.519001 C 43.521111 -22.419029 43.357174 -23.375488 43.377003 -24.337002 L 43.377003 -24.976002 L 46.528004 -24.976002 L 46.528004 -24.424 C 46.534058 -23.920033 46.587967 -23.417774 46.689003 -22.924 C 46.75248 -22.560978 46.934673 -22.229298 47.207001 -21.980999 C 47.505634 -21.751438 47.876968 -21.637127 48.253002 -21.659 C 48.640789 -21.629379 49.024693 -21.753277 49.322002 -22.004002 C 49.584042 -22.283089 49.752831 -22.636745 49.805 -23.015999 C 49.895771 -23.539993 49.93795 -24.071251 49.931004 -24.603001 C 49.968945 -25.375851 49.815037 -26.14608 49.483002 -26.845001 C 49.106956 -27.432232 48.44313 -27.770645 47.747002 -27.73 L 47.218002 -27.73 L 47.218002 -30.283001 L 47.701 -30.283001 C 48.357994 -30.220638 49.005894 -30.471939 49.449001 -30.961002 C 49.820637 -31.595268 49.989189 -32.328106 49.932003 -33.061001 C 49.962978 -33.694035 49.840858 -34.325203 49.576 -34.901001 C 49.289978 -35.372055 48.755276 -35.632763 48.208 -35.568001 C 47.655281 -35.629368 47.124321 -35.333988 46.885002 -34.832001 C 46.640167 -34.225788 46.519127 -33.57671 46.529003 -32.923 L 46.529003 -32.233002 L 43.378002 -32.233002 L 43.378002 -33.132999 C 43.351231 -34.064709 43.544094 -34.989639 43.941002 -35.833 C 44.298901 -36.557159 44.873997 -37.151485 45.586002 -37.533001 C 46.39679 -37.951385 47.299915 -38.158768 48.212002 -38.136002 C 49.135044 -38.166142 50.051315 -37.968666 50.880001 -37.561001 C 51.588581 -37.190235 52.163685 -36.607441 52.525002 -35.894001 C 52.923897 -35.058411 53.116943 -34.139465 53.088001 -33.214001 C 53.127964 -32.261364 52.888096 -31.317879 52.398003 -30.5 C 51.995792 -29.839348 51.365921 -29.348541 50.627003 -29.119999 C 51.115044 -28.967068 51.556885 -28.694057 51.912003 -28.326 C 52.306061 -27.906166 52.600662 -27.403088 52.774002 -26.854 C 52.997036 -26.142555 53.102093 -25.399391 53.085003 -24.653999 C 53.10281 -23.649796 52.942673 -22.650368 52.612003 -21.702 C 52.327648 -20.889702 51.787212 -20.191704 51.072002 -19.713001 C 50.216354 -19.1996 49.227676 -18.951473 48.231003 -19 Z M 59.639 -19 C 58.657204 -18.955227 57.682087 -19.182224 56.821003 -19.655998 C 56.112034 -20.088459 55.566277 -20.743576 55.269001 -21.519001 C 54.930111 -22.419029 54.766174 -23.375488 54.786003 -24.337002 L 54.786003 -24.976002 L 57.937 -24.976002 L 57.937 -24.424 C 57.943058 -23.920033 57.996967 -23.417774 58.098003 -22.924 C 58.16148 -22.560978 58.343674 -22.229298 58.616001 -21.980999 C 58.914635 -21.751438 59.285965 -21.637127 59.662003 -21.659 C 60.049789 -21.629379 60.433693 -21.753277 60.731003 -22.004002 C 60.993992 -22.285774 61.162189 -22.642796 61.212002 -23.025002 C 61.302769 -23.548992 61.344948 -24.08025 61.338001 -24.612 C 61.375942 -25.38485 61.222034 -26.155079 60.890003 -26.854 C 60.513958 -27.441231 59.850132 -27.779644 59.154003 -27.739002 L 58.625 -27.739002 L 58.625 -30.292 L 59.112003 -30.292 C 59.768993 -30.229637 60.416893 -30.480938 60.860001 -30.970001 C 61.231636 -31.604267 61.400188 -32.337105 61.343002 -33.07 C 61.373978 -33.703033 61.251862 -34.334206 60.987003 -34.91 C 60.700977 -35.381058 60.166275 -35.641762 59.619003 -35.577 C 59.06628 -35.638367 58.53532 -35.342991 58.296001 -34.841 C 58.05117 -34.234791 57.930126 -33.585712 57.940002 -32.931999 L 57.940002 -32.242001 L 54.786003 -32.242001 L 54.786003 -33.142002 C 54.759232 -34.073708 54.952095 -34.998638 55.349003 -35.841999 C 55.706902 -36.566162 56.281998 -37.160488 56.994003 -37.542 C 57.803211 -37.955959 58.703377 -38.160198 59.612003 -38.136002 C 60.535042 -38.166142 61.451317 -37.968666 62.280003 -37.561001 C 62.988583 -37.190235 63.563686 -36.607441 63.924999 -35.894001 C 64.323891 -35.058411 64.516937 -34.139465 64.487999 -33.214001 C 64.527962 -32.261364 64.288094 -31.317879 63.798 -30.5 C 63.395794 -29.839348 62.765919 -29.348541 62.027 -29.119999 C 62.516018 -28.967808 62.958927 -28.695118 63.314999 -28.327 C 63.709423 -27.907265 64.004364 -27.404179 64.178001 -26.855 C 64.401031 -26.143555 64.506088 -25.400391 64.488998 -24.654999 C 64.507927 -23.649574 64.348457 -22.648754 64.017998 -21.699001 C 63.733341 -20.887951 63.193333 -20.19109 62.479 -19.713001 C 61.623642 -19.199795 60.635338 -18.951675 59.639 -19 Z M 71.438995 -19 C 70.491158 -18.963543 69.553131 -19.203259 68.738998 -19.689999 C 68.02433 -20.151955 67.463753 -20.816639 67.128998 -21.598999 C 66.754089 -22.486076 66.570099 -23.442135 66.588997 -24.404999 L 66.588997 -32.661999 C 66.568954 -33.641335 66.745079 -34.614777 67.106995 -35.525002 C 67.425613 -36.313183 67.979866 -36.983734 68.694 -37.445 C 69.524025 -37.935841 70.478554 -38.175518 71.442001 -38.134998 C 72.405777 -38.175713 73.360687 -37.936031 74.190994 -37.445 C 74.905128 -36.983734 75.459381 -36.313183 75.778 -35.525002 C 76.13958 -34.614708 76.315361 -33.641266 76.294998 -32.661999 L 76.294998 -24.404999 C 76.313896 -23.442135 76.129906 -22.486076 75.754997 -21.598999 C 75.420242 -20.816639 74.859665 -20.151955 74.144997 -19.689999 C 73.328865 -19.201885 72.388206 -18.962112 71.437996 -19 Z M 71.438995 -21.737 C 71.841171 -21.706459 72.233795 -21.86953 72.495995 -22.175999 C 72.733994 -22.485477 72.891991 -22.848873 72.956001 -23.234001 C 73.031532 -23.63596 73.07003 -24.044006 73.070999 -24.452999 L 73.070999 -32.616001 C 73.072319 -33.043674 73.038879 -33.470745 72.971001 -33.893002 C 72.915596 -34.281975 72.760971 -34.650127 72.521996 -34.962002 C 72.251526 -35.271091 71.850288 -35.433292 71.440994 -35.398998 C 71.031708 -35.433292 70.63047 -35.271091 70.360001 -34.962002 C 70.121422 -34.650002 69.967148 -34.281868 69.911995 -33.893002 C 69.844116 -33.470745 69.810677 -33.043674 69.811996 -32.616001 L 69.811996 -24.451 C 69.812973 -24.041466 69.855186 -23.633072 69.937996 -23.231998 C 70.007675 -22.848293 70.167 -22.486469 70.403 -22.175999 C 70.657829 -21.872421 71.042618 -21.709213 71.437996 -21.737 Z M 78.890999 -25.737 L 78.890999 -27.855 L 84.433998 -27.855 L 84.433998 -25.738998 Z M 91.890999 -18.998001 C 90.943153 -18.96154 90.005135 -19.201256 89.190994 -19.688 C 88.476334 -20.149952 87.915756 -20.81464 87.581001 -21.597 C 87.206085 -22.484077 87.022102 -23.440136 87.041 -24.403 L 87.041 -32.66 C 87.02063 -33.639267 87.196419 -34.612705 87.557999 -35.522999 C 87.876617 -36.31118 88.43087 -36.981735 89.144997 -37.443001 C 89.975021 -37.933842 90.92955 -38.173515 91.892998 -38.132999 C 92.856445 -38.173515 93.810974 -37.933842 94.640999 -37.443001 C 95.355125 -36.981735 95.909378 -36.31118 96.227997 -35.522999 C 96.58992 -34.612778 96.766045 -33.639332 96.745995 -32.66 L 96.745995 -24.403 C 96.76458 -23.440063 96.580254 -22.484005 96.204994 -21.597 C 95.870239 -20.81464 95.309662 -20.149952 94.595001 -19.688 C 93.777786 -19.200016 92.836014 -18.960922 91.884995 -19 Z M 91.890999 -21.735001 C 92.291801 -21.706581 92.682274 -21.870266 92.943001 -22.175999 C 93.180992 -22.485477 93.338989 -22.848873 93.403 -23.234001 C 93.478539 -23.63596 93.517029 -24.044006 93.517998 -24.452999 L 93.517998 -32.616001 C 93.519318 -33.043674 93.485878 -33.470745 93.417999 -33.893002 C 93.362602 -34.281975 93.20797 -34.650127 92.969002 -34.962002 C 92.698524 -35.271091 92.297287 -35.433292 91.888 -35.398998 C 91.478706 -35.433292 91.077477 -35.271091 90.806999 -34.962002 C 90.568031 -34.650127 90.413399 -34.281975 90.358002 -33.893002 C 90.290115 -33.470745 90.256676 -33.043674 90.257996 -32.616001 L 90.257996 -24.451 C 90.258972 -24.041466 90.301186 -23.633072 90.383995 -23.231998 C 90.453972 -22.848206 90.61364 -22.486374 90.849998 -22.175999 C 91.104828 -21.872421 91.489616 -21.709213 91.884995 -21.737 Z M 101.499001 -19.276001 L 101.499001 -34.387001 C 101.322937 -34.308136 101.142662 -34.239029 100.959 -34.18 C 100.692332 -34.088 100.396998 -33.999667 100.072998 -33.915001 C 99.748998 -33.830335 99.453997 -33.750001 99.187996 -33.674 C 98.997101 -33.623028 98.809151 -33.561604 98.625 -33.490002 L 98.625 -35.859001 C 98.839666 -35.935666 99.107999 -36.042999 99.43 -36.181 C 99.751996 -36.319 100.092995 -36.476334 100.452995 -36.653 C 100.804008 -36.824078 101.14222 -37.020252 101.464996 -37.240002 C 101.749466 -37.428444 102.008583 -37.652607 102.236 -37.907001 L 104.673996 -37.907001 L 104.673996 -19.276001 Z M 112.861 -19.022999 C 111.946045 -18.987759 111.03643 -19.17765 110.211998 -19.576 C 109.538872 -19.926067 109.003899 -20.493462 108.694 -21.186001 C 108.350677 -22.000259 108.185974 -22.878677 108.210999 -23.762001 L 108.210999 -24.014999 L 111.247002 -24.014999 C 111.212112 -23.37867 111.318314 -22.742493 111.557999 -22.152 C 111.835747 -21.699741 112.355629 -21.455711 112.880997 -21.531002 C 113.240814 -21.509853 113.592453 -21.643814 113.847 -21.898998 C 114.124046 -22.251369 114.299065 -22.673016 114.352997 -23.118 C 114.473488 -23.855331 114.527374 -24.602009 114.514 -25.348999 L 114.514 -27.576 C 114.282814 -27.208946 113.946091 -26.92033 113.547997 -26.748001 C 113.061768 -26.536385 112.537285 -26.426788 112.006996 -26.425999 C 111.155022 -26.365822 110.309845 -26.614296 109.625999 -27.125999 C 109.015999 -27.639015 108.575096 -28.324245 108.361 -29.091999 C 108.096237 -30.003391 107.968178 -30.94902 107.980995 -31.897999 C 107.961014 -32.994377 108.124252 -34.086399 108.463997 -35.129002 C 108.746483 -36.00172 109.292976 -36.765202 110.028 -37.313999 C 110.861031 -37.876007 111.853218 -38.154125 112.856995 -38.106998 C 113.850143 -38.151527 114.832039 -37.881733 115.662994 -37.335999 C 116.395515 -36.806904 116.946098 -36.063831 117.238998 -35.209 C 117.583252 -34.212399 117.750435 -33.163239 117.733002 -32.109001 L 117.733002 -25.508999 C 117.746452 -24.398151 117.603378 -23.290943 117.307999 -22.220001 C 117.06913 -21.308811 116.555115 -20.493439 115.835999 -19.884998 C 114.975014 -19.259895 113.922798 -18.955017 112.861 -19.022999 Z M 112.883995 -28.844002 C 113.254372 -28.823162 113.619698 -28.937595 113.911995 -29.166 C 114.149414 -29.363171 114.354851 -29.595932 114.520996 -29.855999 L 114.520996 -32.756001 C 114.525452 -33.246124 114.47921 -33.735394 114.382996 -34.216 C 114.312752 -34.606869 114.141014 -34.972412 113.884995 -35.276001 C 113.619843 -35.553921 113.245346 -35.700352 112.862 -35.675999 C 112.483078 -35.69709 112.115128 -35.544758 111.862 -35.262001 C 111.599091 -34.928764 111.428696 -34.532097 111.367996 -34.112 C 111.269424 -33.542419 111.223236 -32.965008 111.229996 -32.387001 C 111.229996 -31.727666 111.256996 -31.129667 111.310997 -30.593002 C 111.3367 -30.137447 111.483406 -29.696983 111.736 -29.317001 C 112.017075 -28.979427 112.446701 -28.802414 112.883995 -28.844002 Z M 124.889999 -19.022999 C 123.889954 -18.975582 122.898071 -19.223553 122.037994 -19.736 C 121.318054 -20.210293 120.776016 -20.910263 120.497002 -21.726002 C 120.174133 -22.677383 120.018501 -23.677498 120.036995 -24.681999 C 120.032974 -25.180264 120.082932 -25.677498 120.185997 -26.165001 C 120.276878 -26.592453 120.423813 -27.006027 120.623001 -27.395 C 120.807259 -27.753471 121.043106 -28.082977 121.322998 -28.373001 C 121.5979 -28.655231 121.916275 -28.891563 122.265999 -29.073002 C 121.688423 -29.485199 121.212646 -30.023903 120.875 -30.647999 C 120.470581 -31.433189 120.268806 -32.306992 120.287994 -33.189999 C 120.266785 -34.092552 120.435074 -34.989521 120.781998 -35.823002 C 121.091072 -36.542568 121.628853 -37.140102 122.311996 -37.522999 C 123.105217 -37.938774 123.99295 -38.141064 124.888 -38.110001 C 125.784958 -38.144855 126.674759 -37.937603 127.463997 -37.509998 C 128.133759 -37.11731 128.661469 -36.522018 128.971008 -35.810001 C 129.318253 -34.981052 129.47937 -34.086006 129.443008 -33.188 C 129.464096 -32.303925 129.270569 -31.42791 128.879013 -30.635002 C 128.551712 -30.015457 128.083466 -29.481453 127.512001 -29.076 C 127.861717 -28.894566 128.180099 -28.658234 128.455002 -28.375999 C 128.734894 -28.085976 128.970749 -27.75647 129.154999 -27.397999 C 129.354187 -27.009029 129.501129 -26.595451 129.59201 -26.167999 C 129.695404 -25.680534 129.745697 -25.1833 129.742004 -24.685001 C 129.775238 -23.68045 129.623032 -22.678375 129.292999 -21.729 C 129.008575 -20.916191 128.467758 -20.2178 127.751991 -19.738998 C 126.889549 -19.223145 125.893753 -18.974018 124.889999 -19.022999 Z M 124.889999 -21.438 C 125.320496 -21.406155 125.741356 -21.576122 126.028999 -21.897999 C 126.294266 -22.234016 126.464828 -22.634869 126.522995 -23.059002 C 126.60025 -23.534088 126.63871 -24.014675 126.638 -24.495998 C 126.65464 -25.001022 126.616081 -25.506351 126.522995 -26.003002 C 126.453484 -26.435497 126.275246 -26.843246 126.004997 -27.188 C 125.724876 -27.50668 125.312317 -27.676727 124.889 -27.647999 C 124.47316 -27.673458 124.069283 -27.503326 123.796997 -27.188 C 123.52771 -26.845951 123.346107 -26.443268 123.267998 -26.014999 C 123.166092 -25.515495 123.116158 -25.006786 123.118996 -24.497002 C 123.118408 -24.011238 123.160568 -23.526367 123.244995 -23.048 C 123.30764 -22.620438 123.486862 -22.218391 123.763 -21.886002 C 124.052383 -21.575085 124.466133 -21.410614 124.889999 -21.438 Z M 124.889999 -30.338001 C 125.236115 -30.335888 125.566734 -30.481373 125.798996 -30.737999 C 126.044411 -31.040199 126.207062 -31.400993 126.270996 -31.785 C 126.368195 -32.285034 126.414436 -32.793636 126.408997 -33.303001 C 126.432365 -33.897221 126.31411 -34.48848 126.063995 -35.028 C 125.844154 -35.467365 125.380997 -35.730732 124.890999 -35.695 C 124.400101 -35.721172 123.938309 -35.461246 123.706001 -35.028 C 123.434677 -34.503681 123.304085 -33.917915 123.326996 -33.327999 C 123.321411 -32.814121 123.371368 -32.301144 123.475998 -31.798 C 123.545547 -31.408279 123.715851 -31.043533 123.970001 -30.740002 C 124.20755 -30.4842 124.540909 -30.338898 124.889999 -30.339001 Z"/>
    <text id="15996396039" xml:space="preserve" x="3" y="17" font-family="PingFang SC" font-size="18" fill="#41f697">15996396039</text>
</svg>
