<svg xmlns="http://www.w3.org/2000/svg" width="30" height="30" viewBox="0 0 30 30"><g transform="translate(-17757 1536)"><circle cx="15" cy="15" r="15" transform="translate(17757 -1536)" fill="#fff"/><g transform="translate(17754 -1539)"><g fill="none" stroke-linecap="round" stroke-linejoin="round"><path d="M33,18A15,15,0,1,1,18,3,15,15,0,0,1,33,18Z" stroke="none"/><path d="M 18 6 C 14.79467964172363 6 11.78121948242188 7.248220443725586 9.514720916748047 9.514720916748047 C 7.248220443725586 11.78121948242188 6 14.79467964172363 6 18 C 6 21.20532035827637 7.248220443725586 24.21878051757812 9.514720916748047 26.48527908325195 C 11.78121948242188 28.75177955627441 14.79467964172363 30 18 30 C 21.20532035827637 30 24.21878051757812 28.75177955627441 26.48527908325195 26.48527908325195 C 28.75177955627441 24.21878051757812 30 21.20532035827637 30 18 C 30 14.79467964172363 28.75177955627441 11.78121948242188 26.48527908325195 9.514720916748047 C 24.21878051757812 7.248220443725586 21.20532035827637 6 18 6 M 18 3 C 26.28427124023438 3 33 9.715730667114258 33 18 C 33 26.28427124023438 26.28427124023438 33 18 33 C 9.715730667114258 33 3 26.28427124023438 3 18 C 3 9.715730667114258 9.715730667114258 3 18 3 Z" stroke="none" fill="#1c9765"/></g><path d="M12,18l6,6,6-6" fill="none" stroke="#1c9765" stroke-linecap="round" stroke-linejoin="round" stroke-width="3"/><path d="M18,12V24" fill="none" stroke="#1c9765" stroke-linecap="round" stroke-linejoin="round" stroke-width="3"/></g></g></svg>